<svg width="22" height="21" viewBox="0 0 22 21" fill="none" xmlns="http://www.w3.org/2000/svg">
<path fill-rule="evenodd" clip-rule="evenodd" d="M7.16015 0.185312L14.6599 0.118527C18.111 0.087795 20.9348 2.88978 20.9658 6.37575L21.0333 13.9512C21.0643 17.4372 18.2909 20.289 14.8397 20.3197L7.34005 20.3865C3.88893 20.4173 1.06512 17.6153 1.03408 14.1293L0.966617 6.55385C0.935574 3.06787 3.70904 0.216045 7.16015 0.185312ZM14.8229 18.4259C17.2353 18.4044 19.1801 16.4047 19.1584 13.9679L19.0909 6.39245C19.0692 3.95568 17.0891 1.99091 14.6767 2.01239L7.17702 2.07918C4.76461 2.10066 2.81984 4.10038 2.84154 6.53715L2.909 14.1126C2.9307 16.5494 4.91078 18.5142 7.32318 18.4927L14.8229 18.4259Z" fill="#666666"/>
<path fill-rule="evenodd" clip-rule="evenodd" d="M6 10.2525C6 7.46339 8.23875 5.20203 11 5.20203C13.7613 5.20203 16 7.46339 16 10.2525C16 13.0417 13.7613 15.303 11 15.303C8.23875 15.303 6 13.0417 6 10.2525ZM7.875 10.2525C7.875 11.9924 9.2775 13.4091 11 13.4091C12.7225 13.4091 14.125 11.9924 14.125 10.2525C14.125 8.51137 12.7225 7.09597 11 7.09597C9.2775 7.09597 7.875 8.51137 7.875 10.2525Z" fill="#5A5A5A"/>
<path d="M16 5.20209C16.5523 5.20209 17 4.74985 17 4.19199C17 3.63412 16.5523 3.18188 16 3.18188C15.4477 3.18188 15 3.63412 15 4.19199C15 4.74985 15.4477 5.20209 16 5.20209Z" fill="#5A5A5A"/>
</svg>
